<mxfile host="65bd71144e">
    <diagram id="tnPTdwq940Q5IJL-1gsY" name="Arquitetura hexagonal">
        <mxGraphModel dx="3107" dy="6785" grid="0" gridSize="10" guides="1" tooltips="1" connect="1" arrows="1" fold="1" page="1" pageScale="1" pageWidth="850" pageHeight="1100" background="#ffffff" math="0" shadow="0">
            <root>
                <mxCell id="0"/>
                <mxCell id="1" parent="0"/>
                <mxCell id="219" value="" style="shape=note;whiteSpace=wrap;html=1;backgroundOutline=1;darkOpacity=0.05;fillColor=#f8cecc;strokeColor=#b85450;size=0;fontSize=10;fontColor=#050505;" parent="1" vertex="1">
                    <mxGeometry x="2760" y="-4939.25" width="422" height="377.25" as="geometry"/>
                </mxCell>
                <mxCell id="211" value="" style="shape=note;whiteSpace=wrap;html=1;backgroundOutline=1;darkOpacity=0.05;fillColor=#f8cecc;strokeColor=#b85450;size=0;fontSize=10;fontColor=#050505;" parent="1" vertex="1">
                    <mxGeometry x="2739" y="-5216.75" width="422" height="133.5" as="geometry"/>
                </mxCell>
                <mxCell id="56" value="IServiçoUP&lt;br&gt;(Adaptador)" style="html=1;strokeColor=#4D4D4D;rotation=0;fillColor=#FFFFFF;fontColor=#000000;strokeWidth=4;fontSize=26;sketch=1;curveFitting=1;jiggle=2;fontFamily=Architects Daughter;fontSource=https%3A%2F%2Ffonts.googleapis.com%2Fcss%3Ffamily%3DArchitects%2BDaughter;" parent="1" vertex="1">
                    <mxGeometry x="153" y="-511.69000000000005" width="159" height="81.69" as="geometry"/>
                </mxCell>
                <mxCell id="57" value="ControladoraUsuario" style="text;html=1;strokeColor=none;fillColor=none;align=center;verticalAlign=middle;whiteSpace=wrap;rounded=0;shadow=0;glass=0;sketch=1;strokeWidth=10;fontFamily=Architects Daughter;fontSource=https%3A%2F%2Ffonts.googleapis.com%2Fcss%3Ffamily%3DArchitects%2BDaughter;fontSize=24;fontColor=#4D4D4D;rotation=0;" parent="1" vertex="1">
                    <mxGeometry x="134" y="-659" width="218" height="30" as="geometry"/>
                </mxCell>
                <mxCell id="58" value="" style="endArrow=block;dashed=1;endFill=0;endSize=12;html=1;sketch=1;strokeColor=#4D4D4D;strokeWidth=4;fontFamily=Architects Daughter;fontSource=https%3A%2F%2Ffonts.googleapis.com%2Fcss%3Ffamily%3DArchitects%2BDaughter;fontSize=24;fontColor=#4D4D4D;entryX=0.5;entryY=1;entryDx=0;entryDy=0;" parent="1" source="60" target="56" edge="1">
                    <mxGeometry width="160" relative="1" as="geometry">
                        <mxPoint x="467" y="-404" as="sourcePoint"/>
                        <mxPoint x="653" y="-624" as="targetPoint"/>
                    </mxGeometry>
                </mxCell>
                <mxCell id="60" value="ServiçoUImplPorta" style="text;html=1;strokeColor=none;fillColor=none;align=center;verticalAlign=middle;whiteSpace=wrap;rounded=0;shadow=0;glass=0;sketch=1;strokeWidth=10;fontFamily=Architects Daughter;fontSource=https%3A%2F%2Ffonts.googleapis.com%2Fcss%3Ffamily%3DArchitects%2BDaughter;fontSize=24;fontColor=#4D4D4D;rotation=0;" parent="1" vertex="1">
                    <mxGeometry x="123.5" y="-355" width="218" height="30" as="geometry"/>
                </mxCell>
                <mxCell id="62" value="ControladoraUsuario" style="text;html=1;strokeColor=none;fillColor=none;align=center;verticalAlign=middle;whiteSpace=wrap;rounded=0;shadow=0;glass=0;sketch=1;strokeWidth=10;fontFamily=Architects Daughter;fontSource=https%3A%2F%2Ffonts.googleapis.com%2Fcss%3Ffamily%3DArchitects%2BDaughter;fontSize=24;fontColor=#4D4D4D;rotation=0;" parent="1" vertex="1">
                    <mxGeometry x="-743" y="-701" width="218" height="30" as="geometry"/>
                </mxCell>
                <mxCell id="64" value="IServiçoIUsuario" style="text;html=1;strokeColor=none;fillColor=none;align=center;verticalAlign=middle;whiteSpace=wrap;rounded=0;shadow=0;glass=0;sketch=1;strokeWidth=10;fontFamily=Architects Daughter;fontSource=https%3A%2F%2Ffonts.googleapis.com%2Fcss%3Ffamily%3DArchitects%2BDaughter;fontSize=24;fontColor=#4D4D4D;rotation=0;" parent="1" vertex="1">
                    <mxGeometry x="-764" y="-460" width="218" height="30" as="geometry"/>
                </mxCell>
                <mxCell id="68" value="A inversão de dependência acontece quando, em vez da &lt;strong&gt;ControladoraUsuario&lt;/strong&gt; depender diretamente de uma implementação concreta de serviço&amp;nbsp;" style="text;html=1;strokeColor=none;fillColor=default;align=center;verticalAlign=middle;whiteSpace=wrap;rounded=0;shadow=0;glass=0;sketch=1;strokeWidth=10;fontFamily=Architects Daughter;fontSource=https%3A%2F%2Ffonts.googleapis.com%2Fcss%3Ffamily%3DArchitects%2BDaughter;fontSize=24;fontColor=#FFFFFF;" parent="1" vertex="1">
                    <mxGeometry x="-905" y="26.879999999999995" width="514" height="126" as="geometry"/>
                </mxCell>
                <mxCell id="69" value="&lt;meta charset=&quot;utf-8&quot;&gt;&lt;strong&gt;IServiçoIUsuario&lt;/strong&gt; → &lt;strong&gt;ServiçoUsuario&lt;/strong&gt;" style="text;whiteSpace=wrap;html=1;fontSize=24;fontFamily=Architects Daughter;fontColor=#4D4D4D;" parent="1" vertex="1">
                    <mxGeometry x="-834" y="-258.12" width="412" height="51" as="geometry"/>
                </mxCell>
                <mxCell id="70" value="&lt;meta charset=&quot;utf-8&quot;&gt;agora depende de uma &lt;strong&gt;abstração&lt;/strong&gt; (&lt;strong&gt;IServiçoUP&lt;/strong&gt;), e quem implementa essa abstração é &lt;strong&gt;ServiçoUImplPorta&lt;/strong&gt;." style="text;whiteSpace=wrap;html=1;fontSize=24;fontFamily=Architects Daughter;fontColor=#FFFFFF;fillColor=default;" parent="1" vertex="1">
                    <mxGeometry x="378.5" y="61" width="550" height="108" as="geometry"/>
                </mxCell>
                <mxCell id="72" value="&amp;nbsp;depende" style="text;whiteSpace=wrap;html=1;fontSize=24;fontFamily=Architects Daughter;fontColor=#4D4D4D;rotation=0;" parent="1" vertex="1">
                    <mxGeometry x="-627" y="-635" width="182" height="50" as="geometry"/>
                </mxCell>
                <mxCell id="75" value="Abstração" style="text;whiteSpace=wrap;html=1;fontSize=24;fontFamily=Architects Daughter;fontColor=#4D4D4D;rotation=0;" parent="1" vertex="1">
                    <mxGeometry x="326" y="-501" width="140" height="50" as="geometry"/>
                </mxCell>
                <mxCell id="76" value="Implementa" style="text;whiteSpace=wrap;html=1;fontSize=24;fontFamily=Architects Daughter;fontColor=#4D4D4D;rotation=0;" parent="1" vertex="1">
                    <mxGeometry x="269" y="-412" width="140" height="50" as="geometry"/>
                </mxCell>
                <mxCell id="77" value="&lt;strong&gt;ControladoraUsuario&lt;/strong&gt; → depende diretamente de &lt;strong&gt;ServiçoUsuario&lt;/strong&gt;" style="text;whiteSpace=wrap;html=1;fontSize=24;fontFamily=Architects Daughter;fontColor=#4D4D4D;" parent="1" vertex="1">
                    <mxGeometry x="-966" y="-197.12" width="748" height="51" as="geometry"/>
                </mxCell>
                <mxCell id="78" value="Se precisar mudar &lt;strong&gt;ServiçoUsuario&lt;/strong&gt;, precisa mexer na controladora." style="text;whiteSpace=wrap;html=1;fontSize=24;fontFamily=Architects Daughter;fontColor=#4D4D4D;" parent="1" vertex="1">
                    <mxGeometry x="-810" y="-129.12" width="398" height="51" as="geometry"/>
                </mxCell>
                <mxCell id="79" value="Antes da inversão de dependência" style="text;whiteSpace=wrap;html=1;fontSize=24;fontFamily=Architects Daughter;fontColor=#4D4D4D;fontStyle=1" parent="1" vertex="1">
                    <mxGeometry x="-817" y="-358.12" width="412" height="51" as="geometry"/>
                </mxCell>
                <mxCell id="80" value="Depois da inversão de dependência" style="text;whiteSpace=wrap;html=1;fontSize=24;fontFamily=Architects Daughter;fontColor=#4D4D4D;fontStyle=1" parent="1" vertex="1">
                    <mxGeometry x="447.5" y="-279" width="412" height="51" as="geometry"/>
                </mxCell>
                <mxCell id="82" value="&lt;strong&gt;IServiçoIUsuario&lt;/strong&gt; → abstração &amp;lt;-&amp;nbsp;&lt;strong&gt;ServiçoUsuario&lt;/strong&gt;" style="text;whiteSpace=wrap;html=1;fontSize=24;fontFamily=Architects Daughter;fontColor=#4D4D4D;" parent="1" vertex="1">
                    <mxGeometry x="387.5" y="-225" width="578" height="51" as="geometry"/>
                </mxCell>
                <mxCell id="83" value="&lt;strong&gt;ControladoraUsuario&lt;/strong&gt; → depende agora depende de &lt;strong&gt;IServiçoUP&lt;/strong&gt; (uma interface/abstração)." style="text;whiteSpace=wrap;html=1;fontSize=24;fontFamily=Architects Daughter;fontColor=#4D4D4D;" parent="1" vertex="1">
                    <mxGeometry x="197" y="-161" width="1058" height="51" as="geometry"/>
                </mxCell>
                <mxCell id="84" value="&lt;strong&gt;ServiçoUImplPorta&lt;/strong&gt; implementa essa interface e pode ser trocado sem afetar a controladora" style="text;whiteSpace=wrap;html=1;fontSize=24;fontFamily=Architects Daughter;fontColor=#4D4D4D;" parent="1" vertex="1">
                    <mxGeometry x="420.5" y="-102" width="466" height="51" as="geometry"/>
                </mxCell>
                <mxCell id="85" value="" style="endArrow=open;endFill=1;endSize=12;html=1;sketch=1;strokeColor=#4D4D4D;strokeWidth=4;fontFamily=Architects Daughter;fontSource=https%3A%2F%2Ffonts.googleapis.com%2Fcss%3Ffamily%3DArchitects%2BDaughter;fontSize=24;fontColor=#4D4D4D;" parent="1" edge="1">
                    <mxGeometry width="160" relative="1" as="geometry">
                        <mxPoint x="25" y="112" as="sourcePoint"/>
                        <mxPoint x="345" y="112" as="targetPoint"/>
                    </mxGeometry>
                </mxCell>
                <mxCell id="86" value="Isso segue o &lt;strong&gt;Princípio da Inversão de Dependência (DIP)&lt;/strong&gt; do SOLID, deixando o código mais flexível e testável." style="text;whiteSpace=wrap;html=1;fontSize=24;fontFamily=Architects Daughter;fontColor=#4D4D4D;" parent="1" vertex="1">
                    <mxGeometry x="-593" y="196" width="1234" height="51" as="geometry"/>
                </mxCell>
                <mxCell id="87" value="Arquitetura hexagonal" style="text;whiteSpace=wrap;html=1;fontSize=50;fontFamily=Architects Daughter;fontColor=#4D4D4D;fontStyle=1" parent="1" vertex="1">
                    <mxGeometry x="-787" y="-4348" width="1234" height="51" as="geometry"/>
                </mxCell>
                <mxCell id="88" value="usa - depende" style="text;whiteSpace=wrap;html=1;fontSize=24;fontFamily=Architects Daughter;fontColor=#4D4D4D;rotation=0;" parent="1" vertex="1">
                    <mxGeometry x="265.5" y="-599" width="182" height="50" as="geometry"/>
                </mxCell>
                <mxCell id="94" value="" style="endArrow=open;endSize=12;dashed=1;html=1;sketch=1;strokeColor=#4D4D4D;strokeWidth=4;fontFamily=Architects Daughter;fontSource=https%3A%2F%2Ffonts.googleapis.com%2Fcss%3Ffamily%3DArchitects%2BDaughter;fontSize=50;fontColor=#FFFFFF;" parent="1" edge="1">
                    <mxGeometry width="160" relative="1" as="geometry">
                        <mxPoint x="-656" y="-658" as="sourcePoint"/>
                        <mxPoint x="-656" y="-485" as="targetPoint"/>
                    </mxGeometry>
                </mxCell>
                <mxCell id="95" value="" style="endArrow=open;endSize=12;dashed=1;html=1;sketch=1;strokeColor=#4D4D4D;strokeWidth=4;fontFamily=Architects Daughter;fontSource=https%3A%2F%2Ffonts.googleapis.com%2Fcss%3Ffamily%3DArchitects%2BDaughter;fontSize=50;fontColor=#FFFFFF;entryX=0.5;entryY=0;entryDx=0;entryDy=0;" parent="1" target="56" edge="1">
                    <mxGeometry width="160" relative="1" as="geometry">
                        <mxPoint x="237" y="-609" as="sourcePoint"/>
                        <mxPoint x="243" y="-562" as="targetPoint"/>
                    </mxGeometry>
                </mxCell>
                <mxCell id="97" value="Isso cria um acoplamento forte, pois a &lt;strong&gt;controladora depende diretamente da implementação concreta&lt;/strong&gt;." style="text;whiteSpace=wrap;html=1;fontSize=24;fontFamily=Architects Daughter;fontColor=#4D4D4D;fontStyle=0" parent="1" vertex="1">
                    <mxGeometry x="-1125" y="-684" width="412" height="127" as="geometry"/>
                </mxCell>
                <mxCell id="98" value="a &lt;strong&gt;controladora &lt;/strong&gt;&lt;span style=&quot;&quot;&gt;não sabe&lt;/span&gt;&lt;strong&gt; quem está implementando IServiçoUP&lt;/strong&gt;, ela só chama métodos da interface." style="text;whiteSpace=wrap;html=1;fontSize=24;fontFamily=Architects Daughter;fontColor=#4D4D4D;fontStyle=0" parent="1" vertex="1">
                    <mxGeometry x="-310" y="-671" width="412" height="105.12" as="geometry"/>
                </mxCell>
                <mxCell id="100" value="&lt;p&gt;&lt;strong&gt;Resumo da regra:&lt;/strong&gt;&lt;/p&gt;&lt;ol&gt;&lt;li&gt;&lt;strong&gt;As classes de alto nível (ex.: ControladoraUsuario) devem depender de abstrações.&lt;/strong&gt;&lt;/li&gt;&lt;li&gt;&lt;strong&gt;As classes de baixo nível (ex.: ServiçoUImplPorta) devem implementar essas abstrações.&lt;/strong&gt;&lt;/li&gt;&lt;li&gt;&lt;strong&gt;A dependência sempre aponta para a interface, não para a implementação concreta.&lt;/strong&gt;&lt;/li&gt;&lt;/ol&gt;" style="text;whiteSpace=wrap;html=1;fontSize=24;fontFamily=Architects Daughter;fontColor=#4D4D4D;" parent="1" vertex="1">
                    <mxGeometry x="-553" y="234" width="1234" height="51" as="geometry"/>
                </mxCell>
                <mxCell id="102" value="Isso deixa seu código mais modular, testável e fácil de modificar! 🚀" style="text;whiteSpace=wrap;html=1;fontSize=24;fontFamily=Architects Daughter;fontColor=#4D4D4D;" parent="1" vertex="1">
                    <mxGeometry x="-459" y="468" width="823" height="51" as="geometry"/>
                </mxCell>
                <mxCell id="103" value="" style="shape=image;verticalLabelPosition=bottom;labelBackgroundColor=default;verticalAlign=top;aspect=fixed;imageAspect=0;image=https://dicionariotec.com/public_html/images/dip1.png;" parent="1" vertex="1">
                    <mxGeometry x="690.9985714285717" y="194.00428571428574" width="520" height="356" as="geometry"/>
                </mxCell>
                <mxCell id="104" value="" style="shape=image;verticalLabelPosition=bottom;labelBackgroundColor=default;verticalAlign=top;aspect=fixed;imageAspect=0;image=https://dicionariotec.com/public_html/images/dip2.png;" parent="1" vertex="1">
                    <mxGeometry x="-1157.0045454545457" y="233.99818181818148" width="520" height="212" as="geometry"/>
                </mxCell>
                <mxCell id="105" value="📂 src  &#10;│  &#10;├── 📂 infraestrutura  # Comunicação externa (HTTP, banco de dados, etc.)  &#10;│   ├── 📂 bancoDeDados  &#10;│   │   ├── database.ts/   # Arquivo de conexão com o banco&#10;│   │    &#10;│   ├── 📂 adaptadores  # Implementações concretas das interfaces da aplicação  &#10;│   │   ├── RepositorioImplPorta.ts   # Implementação do repositório&#10;│   │    &#10;│   ├── 📂 controladores  # Controllers do Express  &#10;│   │   ├── ControladoraUsuario.ts  # Controlador que lida com requisições  &#10;│   │   &#10;│   ├── 📂 rotas  # Definição das rotas HTTP  &#10;│   │   ├── UsuarioRotas.ts  # Define as rotas de usuário&#10;│  &#10;├── 📂 aplicacao  # Regras de negócio e interfaces (casos de uso)  &#10;│   ├── 📂 casosDeUso  &#10;│   │   ├── ServiçoUImplPorta.ts   # Implementação da lógica de negócios&#10;│   │  &#10;│   ├── 📂 portas  # Interfaces usadas na aplicação (abstrações)  &#10;│   │   ├── IServiçoUP.ts # Interface do serviço &#10;│   │   ├── IRepositorioUP.ts  # Interface do repositório &#10;│  &#10;├── 📂 dominio  # Regras de domínio puro  &#10;│   ├── 📂 entidades  &#10;│   │   ├── Usuario.ts # Definição da entidade Usuario&#10;│  &#10;├── index.ts  # Ponto de entrada do Express  &#10;├── package.json # Dependências do projeto&#10;  &#10;" style="text;strokeColor=none;fillColor=none;align=left;verticalAlign=top;spacingLeft=4;spacingRight=4;overflow=hidden;rotatable=0;points=[[0,0.5],[1,0.5]];portConstraint=eastwest;strokeWidth=4;fontSize=26;fontColor=#000000;fontFamily=Architects Daughter;fontSource=https%3A%2F%2Ffonts.googleapis.com%2Fcss%3Ffamily%3DArchitects%2BDaughter;" parent="1" vertex="1">
                    <mxGeometry x="978" y="-3578" width="1358" height="991" as="geometry"/>
                </mxCell>
                <mxCell id="108" value="&lt;strong&gt;A controladora depende do Express&lt;/strong&gt; (ou seja, de um detalhe da infraestrutura)&lt;br&gt;&lt;strong&gt;iItermediar&lt;/strong&gt; a comunicação entre a web e a aplicação." style="text;whiteSpace=wrap;html=1;fontSize=24;fontFamily=Architects Daughter;fontColor=#4D4D4D;fontStyle=1" parent="1" vertex="1">
                    <mxGeometry x="1980" y="-3281" width="457" height="51" as="geometry"/>
                </mxCell>
                <mxCell id="109" value="&lt;strong&gt;Casos de uso&lt;/strong&gt; (&lt;strong&gt;ServiçoUImplPorta.ts&lt;/strong&gt;) aplicam regras de negócio" style="text;whiteSpace=wrap;html=1;fontSize=24;fontFamily=Architects Daughter;fontColor=#4D4D4D;fontStyle=1" parent="1" vertex="1">
                    <mxGeometry x="1990" y="-3056.76" width="457" height="51" as="geometry"/>
                </mxCell>
                <mxCell id="111" value="&lt;strong&gt;Portas&lt;/strong&gt; (&lt;strong&gt;IServiçoUP.ts&lt;/strong&gt;, &lt;strong&gt;IRepositorioUP.ts&lt;/strong&gt;) garantem abstração e desacoplamento." style="text;whiteSpace=wrap;html=1;fontSize=24;fontFamily=Architects Daughter;fontColor=#4D4D4D;fontStyle=1" parent="1" vertex="1">
                    <mxGeometry x="1998" y="-2957.76" width="457" height="51" as="geometry"/>
                </mxCell>
                <mxCell id="112" value="Infraestrutura gerencia tudo que toca o &quot;mundo externo&quot;" style="text;whiteSpace=wrap;html=1;fontSize=24;fontFamily=Architects Daughter;fontColor=#4D4D4D;fontStyle=1" parent="1" vertex="1">
                    <mxGeometry x="2000" y="-3523" width="457" height="51" as="geometry"/>
                </mxCell>
                <mxCell id="114" value="baixo acoplamento e alto nível de organização" style="text;whiteSpace=wrap;html=1;fontSize=24;fontFamily=Architects Daughter;fontColor=#4D4D4D;fontStyle=1" parent="1" vertex="1">
                    <mxGeometry x="1390" y="-3610" width="525" height="51" as="geometry"/>
                </mxCell>
                <mxCell id="116" value="" style="rounded=0;whiteSpace=wrap;html=1;strokeColor=#1A1A1A;strokeWidth=3;fontSize=20;fontColor=#4D4D4D;fillColor=#F7F7F7;dashed=1;" parent="1" vertex="1">
                    <mxGeometry x="-630" y="-3610" width="1530" height="2705" as="geometry"/>
                </mxCell>
                <mxCell id="117" value="Actor" style="shape=umlActor;verticalLabelPosition=bottom;verticalAlign=top;html=1;strokeColor=#4D4D4D;" parent="1" vertex="1">
                    <mxGeometry x="-230" y="-4106" width="53.5" height="107" as="geometry"/>
                </mxCell>
                <mxCell id="118" value="" style="endArrow=block;startArrow=block;endFill=1;startFill=1;html=1;strokeColor=#4D4D4D;strokeWidth=4;" parent="1" edge="1">
                    <mxGeometry width="160" relative="1" as="geometry">
                        <mxPoint x="-201" y="-3961.55" as="sourcePoint"/>
                        <mxPoint x="-201" y="-3894" as="targetPoint"/>
                    </mxGeometry>
                </mxCell>
                <mxCell id="119" value="Front&lt;br&gt;(Inteface de usuário)" style="html=1;strokeColor=#4D4D4D;rotation=0;fillColor=#FFFFFF;fontColor=#000000;strokeWidth=4;fontSize=26;sketch=1;curveFitting=1;jiggle=2;fontFamily=Architects Daughter;fontSource=https%3A%2F%2Ffonts.googleapis.com%2Fcss%3Ffamily%3DArchitects%2BDaughter;" parent="1" vertex="1">
                    <mxGeometry x="-350" y="-3861" width="309" height="116" as="geometry"/>
                </mxCell>
                <mxCell id="122" value="Request" style="text;html=1;strokeColor=none;fillColor=none;align=center;verticalAlign=middle;whiteSpace=wrap;rounded=0;shadow=0;glass=0;sketch=1;strokeWidth=10;fontFamily=Architects Daughter;fontSource=https%3A%2F%2Ffonts.googleapis.com%2Fcss%3Ffamily%3DArchitects%2BDaughter;fontSize=24;fontColor=#4D4D4D;rotation=90;" parent="1" vertex="1">
                    <mxGeometry x="-234" y="-3682" width="218" height="30" as="geometry"/>
                </mxCell>
                <mxCell id="123" value="Reponse" style="text;html=1;strokeColor=none;fillColor=none;align=center;verticalAlign=middle;whiteSpace=wrap;rounded=0;shadow=0;glass=0;sketch=1;strokeWidth=10;fontFamily=Architects Daughter;fontSource=https%3A%2F%2Ffonts.googleapis.com%2Fcss%3Ffamily%3DArchitects%2BDaughter;fontSize=24;fontColor=#4D4D4D;rotation=90;" parent="1" vertex="1">
                    <mxGeometry x="-379" y="-3682" width="218" height="30" as="geometry"/>
                </mxCell>
                <mxCell id="124" value="" style="endArrow=classic;html=1;sketch=1;strokeColor=#4D4D4D;strokeWidth=4;fontFamily=Architects Daughter;fontSource=https%3A%2F%2Ffonts.googleapis.com%2Fcss%3Ffamily%3DArchitects%2BDaughter;fontSize=24;fontColor=#4D4D4D;" parent="1" edge="1">
                    <mxGeometry width="50" height="50" relative="1" as="geometry">
                        <mxPoint x="-241" y="-3627.000000000001" as="sourcePoint"/>
                        <mxPoint x="-239" y="-3723" as="targetPoint"/>
                    </mxGeometry>
                </mxCell>
                <mxCell id="125" value="Arquitetura em camadas" style="text;whiteSpace=wrap;html=1;fontSize=50;fontFamily=Architects Daughter;fontColor=#4D4D4D;fontStyle=1" parent="1" vertex="1">
                    <mxGeometry x="-465" y="-4227" width="623" height="51" as="geometry"/>
                </mxCell>
                <mxCell id="126" value="Servidor Express&lt;br&gt;(index.ts)&amp;nbsp;&amp;nbsp;" style="html=1;strokeColor=#4D4D4D;rotation=0;fillColor=#FFFFFF;fontColor=#000000;strokeWidth=4;fontSize=26;sketch=1;curveFitting=1;jiggle=2;fontFamily=Architects Daughter;fontSource=https%3A%2F%2Ffonts.googleapis.com%2Fcss%3Ffamily%3DArchitects%2BDaughter;" parent="1" vertex="1">
                    <mxGeometry x="56.039999999999964" y="-3589" width="247.42" height="116" as="geometry"/>
                </mxCell>
                <mxCell id="127" value="" style="endArrow=classic;html=1;sketch=1;strokeColor=#4D4D4D;strokeWidth=4;fontFamily=Architects Daughter;fontSource=https%3A%2F%2Ffonts.googleapis.com%2Fcss%3Ffamily%3DArchitects%2BDaughter;fontSize=24;fontColor=#4D4D4D;" parent="1" edge="1">
                    <mxGeometry width="50" height="50" relative="1" as="geometry">
                        <mxPoint x="-165" y="-3704" as="sourcePoint"/>
                        <mxPoint x="-165" y="-3618" as="targetPoint"/>
                    </mxGeometry>
                </mxCell>
                <mxCell id="128" value="Infraestrutura" style="html=1;strokeColor=#4D4D4D;rotation=0;fillColor=#FFFFFF;fontColor=#000000;strokeWidth=4;fontSize=26;sketch=1;curveFitting=1;jiggle=2;fontFamily=Architects Daughter;fontSource=https%3A%2F%2Ffonts.googleapis.com%2Fcss%3Ffamily%3DArchitects%2BDaughter;fontStyle=1" parent="1" vertex="1">
                    <mxGeometry x="-127" y="-3394" width="615" height="88" as="geometry"/>
                </mxCell>
                <mxCell id="129" value="Back" style="text;strokeColor=none;fillColor=none;align=left;verticalAlign=top;spacingLeft=4;spacingRight=4;overflow=hidden;rotatable=0;points=[[0,0.5],[1,0.5]];portConstraint=eastwest;strokeWidth=4;fontSize=26;fontColor=#000000;fontFamily=Architects Daughter;fontSource=https%3A%2F%2Ffonts.googleapis.com%2Fcss%3Ffamily%3DArchitects%2BDaughter;" parent="1" vertex="1">
                    <mxGeometry x="-609" y="-3671" width="205" height="38" as="geometry"/>
                </mxCell>
                <mxCell id="130" value="" style="html=1;strokeColor=#4D4D4D;rotation=0;fillColor=#FFFFFF;fontColor=#000000;strokeWidth=4;fontSize=26;sketch=1;curveFitting=1;jiggle=2;" parent="1" vertex="1">
                    <mxGeometry x="-127" y="-3304" width="615" height="503" as="geometry"/>
                </mxCell>
                <mxCell id="131" value="Rotas&lt;br&gt;(usuarioRotas.ts)" style="html=1;strokeColor=#4D4D4D;rotation=0;fillColor=#FFFFFF;fontColor=#000000;strokeWidth=4;fontSize=26;sketch=1;curveFitting=1;jiggle=2;fontFamily=Architects Daughter;fontSource=https%3A%2F%2Ffonts.googleapis.com%2Fcss%3Ffamily%3DArchitects%2BDaughter;" parent="1" vertex="1">
                    <mxGeometry x="-48" y="-3256" width="441" height="148" as="geometry"/>
                </mxCell>
                <mxCell id="132" value="Controladora&lt;br&gt;(ControladorUsuario.ts)" style="html=1;strokeColor=#4D4D4D;rotation=0;fillColor=#FFFFFF;fontColor=#000000;strokeWidth=4;fontSize=26;sketch=1;curveFitting=1;jiggle=2;fontFamily=Architects Daughter;fontSource=https%3A%2F%2Ffonts.googleapis.com%2Fcss%3Ffamily%3DArchitects%2BDaughter;" parent="1" vertex="1">
                    <mxGeometry x="-45" y="-2999" width="441" height="148" as="geometry"/>
                </mxCell>
                <mxCell id="133" value="" style="endArrow=open;endSize=12;dashed=1;html=1;sketch=1;strokeColor=#4D4D4D;strokeWidth=4;fontFamily=Architects Daughter;fontSource=https%3A%2F%2Ffonts.googleapis.com%2Fcss%3Ffamily%3DArchitects%2BDaughter;fontSize=50;fontColor=#FFFFFF;entryX=0.5;entryY=0;entryDx=0;entryDy=0;exitX=0.5;exitY=1;exitDx=0;exitDy=0;" parent="1" source="131" target="132" edge="1">
                    <mxGeometry width="160" relative="1" as="geometry">
                        <mxPoint x="158" y="-3024" as="sourcePoint"/>
                        <mxPoint x="281" y="-2964" as="targetPoint"/>
                    </mxGeometry>
                </mxCell>
                <mxCell id="134" value="" style="endArrow=open;endSize=12;dashed=1;html=1;sketch=1;strokeColor=#4D4D4D;strokeWidth=4;fontFamily=Architects Daughter;fontSource=https%3A%2F%2Ffonts.googleapis.com%2Fcss%3Ffamily%3DArchitects%2BDaughter;fontSize=50;fontColor=#FFFFFF;exitX=0.5;exitY=1;exitDx=0;exitDy=0;" parent="1" source="126" target="128" edge="1">
                    <mxGeometry width="160" relative="1" as="geometry">
                        <mxPoint x="178.25" y="-3446" as="sourcePoint"/>
                        <mxPoint x="181.25" y="-3337" as="targetPoint"/>
                    </mxGeometry>
                </mxCell>
                <mxCell id="136" value="Aplicação" style="html=1;strokeColor=#4D4D4D;rotation=0;fillColor=#FFFFFF;fontColor=#000000;strokeWidth=4;fontSize=26;sketch=1;curveFitting=1;jiggle=2;fontFamily=Architects Daughter;fontSource=https%3A%2F%2Ffonts.googleapis.com%2Fcss%3Ffamily%3DArchitects%2BDaughter;fontStyle=1" parent="1" vertex="1">
                    <mxGeometry x="-510" y="-2711" width="1378" height="88" as="geometry"/>
                </mxCell>
                <mxCell id="137" value="" style="edgeStyle=none;html=1;" parent="1" source="138" edge="1">
                    <mxGeometry relative="1" as="geometry">
                        <mxPoint x="-204.98235294117694" y="-2283" as="targetPoint"/>
                    </mxGeometry>
                </mxCell>
                <mxCell id="138" value="" style="html=1;strokeColor=#4D4D4D;rotation=0;fillColor=#FFFFFF;fontColor=#000000;strokeWidth=4;fontSize=26;sketch=1;curveFitting=1;jiggle=2;" parent="1" vertex="1">
                    <mxGeometry x="-510" y="-2621" width="1379" height="771" as="geometry"/>
                </mxCell>
                <mxCell id="140" value="&lt;span style=&quot;background-color: rgb(255, 255, 255);&quot;&gt;&amp;lt;&amp;lt;IServiçoUP&amp;gt;&amp;gt;&lt;/span&gt;&lt;br&gt;&lt;span style=&quot;background-color: rgb(255, 255, 255);&quot;&gt;(Adaptador)&lt;/span&gt;" style="html=1;strokeColor=#4D4D4D;rotation=0;fillColor=#FFFFFF;fontColor=#000000;strokeWidth=4;fontSize=26;sketch=1;curveFitting=1;jiggle=2;fontFamily=Architects Daughter;fontSource=https%3A%2F%2Ffonts.googleapis.com%2Fcss%3Ffamily%3DArchitects%2BDaughter;" parent="1" vertex="1">
                    <mxGeometry x="-431" y="-2576" width="441" height="148" as="geometry"/>
                </mxCell>
                <mxCell id="145" value="Domínio" style="html=1;strokeColor=#4D4D4D;rotation=0;fillColor=#FFFFFF;fontColor=#000000;strokeWidth=4;fontSize=26;sketch=1;curveFitting=1;jiggle=2;fontFamily=Architects Daughter;fontSource=https%3A%2F%2Ffonts.googleapis.com%2Fcss%3Ffamily%3DArchitects%2BDaughter;fontStyle=1" parent="1" vertex="1">
                    <mxGeometry x="209" y="-2424" width="615" height="88" as="geometry"/>
                </mxCell>
                <mxCell id="146" value="" style="html=1;strokeColor=#4D4D4D;rotation=0;fillColor=#FFFFFF;fontColor=#000000;strokeWidth=4;fontSize=26;sketch=1;curveFitting=1;jiggle=2;" parent="1" vertex="1">
                    <mxGeometry x="207" y="-2327.5" width="615" height="254" as="geometry"/>
                </mxCell>
                <mxCell id="147" value="Entidade e regras&lt;br&gt;(Usuario..ts)" style="html=1;strokeColor=#4D4D4D;rotation=0;fillColor=#FFFFFF;fontColor=#000000;strokeWidth=4;fontSize=26;sketch=1;curveFitting=1;jiggle=2;fontFamily=Architects Daughter;fontSource=https%3A%2F%2Ffonts.googleapis.com%2Fcss%3Ffamily%3DArchitects%2BDaughter;" parent="1" vertex="1">
                    <mxGeometry x="294" y="-2288.5" width="441" height="148" as="geometry"/>
                </mxCell>
                <mxCell id="148" value="" style="endArrow=open;endSize=12;dashed=1;html=1;sketch=1;strokeColor=#4D4D4D;strokeWidth=4;fontFamily=Architects Daughter;fontSource=https%3A%2F%2Ffonts.googleapis.com%2Fcss%3Ffamily%3DArchitects%2BDaughter;fontSize=50;fontColor=#FFFFFF;entryX=0;entryY=0.25;entryDx=0;entryDy=0;" parent="1" target="146" edge="1">
                    <mxGeometry width="160" relative="1" as="geometry">
                        <mxPoint y="-2264" as="sourcePoint"/>
                        <mxPoint x="-195.96073298429337" y="-1742" as="targetPoint"/>
                    </mxGeometry>
                </mxCell>
                <mxCell id="154" value="" style="shape=note;whiteSpace=wrap;html=1;backgroundOutline=1;darkOpacity=0.05;fillColor=#B1DDF0;strokeColor=#10739E;size=0;fontSize=10;" parent="1" vertex="1">
                    <mxGeometry x="-631" y="-5459" width="418" height="244" as="geometry"/>
                </mxCell>
                <mxCell id="155" value="" style="shape=note;whiteSpace=wrap;html=1;backgroundOutline=1;darkOpacity=0.05;fillColor=#CDEB8B;strokeColor=#D5E8D4;size=0;fontSize=10;fontColor=#050505;" parent="1" vertex="1">
                    <mxGeometry x="-635" y="-5201" width="418" height="150" as="geometry"/>
                </mxCell>
                <mxCell id="156" value="Apresentação" style="text;html=1;strokeColor=none;fillColor=none;align=center;verticalAlign=middle;whiteSpace=wrap;rounded=0;fontSize=31;fontColor=#000000;" parent="1" vertex="1">
                    <mxGeometry x="-514" y="-5425" width="162" height="30" as="geometry"/>
                </mxCell>
                <mxCell id="159" value="Cliente Web html&amp;nbsp;" style="rounded=1;whiteSpace=wrap;html=1;fillColor=#FFFFFF;strokeColor=#36393d;strokeWidth=2;fontColor=#050505;fontSize=24;" parent="1" vertex="1">
                    <mxGeometry x="-584" y="-5350" width="318" height="83" as="geometry"/>
                </mxCell>
                <mxCell id="160" value="Arquitetura em camadas" style="text;whiteSpace=wrap;html=1;fontSize=50;fontFamily=Architects Daughter;fontColor=#4D4D4D;fontStyle=1" parent="1" vertex="1">
                    <mxGeometry x="-1275" y="-5474" width="623" height="51" as="geometry"/>
                </mxCell>
                <mxCell id="161" value="Controladora" style="rounded=1;whiteSpace=wrap;html=1;fillColor=#FFFFFF;strokeColor=#36393d;strokeWidth=2;fontColor=#050505;fontSize=24;" parent="1" vertex="1">
                    <mxGeometry x="-538" y="-5173" width="212" height="86" as="geometry"/>
                </mxCell>
                <mxCell id="162" value="" style="shape=note;whiteSpace=wrap;html=1;backgroundOutline=1;darkOpacity=0.05;fillColor=#f8cecc;strokeColor=#b85450;size=0;fontSize=10;fontColor=#050505;" parent="1" vertex="1">
                    <mxGeometry x="-634" y="-5037" width="422" height="213" as="geometry"/>
                </mxCell>
                <mxCell id="173" style="edgeStyle=none;html=1;" parent="1" source="163" target="162" edge="1">
                    <mxGeometry relative="1" as="geometry"/>
                </mxCell>
                <mxCell id="163" value="Serviço&lt;br&gt;(Negócio)" style="rounded=1;whiteSpace=wrap;html=1;fillColor=#FFFFFF;strokeColor=#36393d;strokeWidth=2;fontColor=#050505;fontSize=24;" parent="1" vertex="1">
                    <mxGeometry x="-516" y="-4920" width="192" height="80" as="geometry"/>
                </mxCell>
                <mxCell id="164" value="" style="shape=note;whiteSpace=wrap;html=1;backgroundOutline=1;darkOpacity=0.05;fillColor=#FFCC99;strokeColor=#D5E8D4;size=0;fontSize=10;fontColor=#050505;" parent="1" vertex="1">
                    <mxGeometry x="-630" y="-4795" width="418" height="218" as="geometry"/>
                </mxCell>
                <mxCell id="165" value="Persistência" style="rounded=1;whiteSpace=wrap;html=1;fillColor=#FFFFFF;strokeColor=#36393d;strokeWidth=2;fontColor=#050505;fontSize=24;" parent="1" vertex="1">
                    <mxGeometry x="-529" y="-4678" width="208" height="80" as="geometry"/>
                </mxCell>
                <mxCell id="166" value="" style="endArrow=classic;startArrow=classic;html=1;strokeColor=#333333;strokeWidth=5;fontFamily=Architects Daughter;fontSource=https%3A%2F%2Ffonts.googleapis.com%2Fcss%3Ffamily%3DArchitects%2BDaughter;fontColor=#1A1A1A;exitX=1;exitY=0.5;exitDx=0;exitDy=0;" parent="1" edge="1">
                    <mxGeometry width="50" height="50" relative="1" as="geometry">
                        <mxPoint x="-191.5" y="-4507.5" as="sourcePoint"/>
                        <mxPoint x="86.50000000000091" y="-4507" as="targetPoint"/>
                    </mxGeometry>
                </mxCell>
                <mxCell id="167" value="" style="shape=cylinder3;whiteSpace=wrap;html=1;boundedLbl=1;backgroundOutline=1;size=15;strokeColor=#4D4D4D;strokeWidth=4;fontSize=26;fontColor=#000000;fillColor=#FFFFFF;sketch=1;curveFitting=1;jiggle=2;" parent="1" vertex="1">
                    <mxGeometry x="101.5" y="-4594" width="127" height="144" as="geometry"/>
                </mxCell>
                <mxCell id="168" value="Banco de dados" style="text;strokeColor=none;fillColor=none;align=left;verticalAlign=top;spacingLeft=4;spacingRight=4;overflow=hidden;rotatable=0;points=[[0,0.5],[1,0.5]];portConstraint=eastwest;strokeWidth=4;fontSize=26;fontColor=#000000;fontFamily=Architects Daughter;fontSource=https%3A%2F%2Ffonts.googleapis.com%2Fcss%3Ffamily%3DArchitects%2BDaughter;" parent="1" vertex="1">
                    <mxGeometry x="77.5" y="-4430" width="205" height="38" as="geometry"/>
                </mxCell>
                <mxCell id="169" value="" style="shape=note;whiteSpace=wrap;html=1;backgroundOutline=1;darkOpacity=0.05;fillColor=#FF8000;strokeColor=#D5E8D4;size=0;fontSize=10;fontColor=#050505;" parent="1" vertex="1">
                    <mxGeometry x="-629" y="-4562" width="418" height="138" as="geometry"/>
                </mxCell>
                <mxCell id="170" value="Banco de dados" style="rounded=1;whiteSpace=wrap;html=1;fillColor=#FFFFFF;strokeColor=#36393d;strokeWidth=2;fontColor=#050505;fontSize=24;" parent="1" vertex="1">
                    <mxGeometry x="-530" y="-4543" width="208" height="80" as="geometry"/>
                </mxCell>
                <mxCell id="171" value="&lt;p&gt;Estamos separando responsabilidades corretamente:&lt;/p&gt;&lt;ul&gt;&lt;li&gt;&lt;strong&gt;Controller&lt;/strong&gt; 👉 só trata requisições.&lt;/li&gt;&lt;li&gt;&lt;strong&gt;Service&lt;/strong&gt; 👉 regras de negócio.&lt;/li&gt;&lt;li&gt;&lt;strong&gt;Repository&lt;/strong&gt; 👉 persistência de dados.&lt;/li&gt;&lt;/ul&gt;" style="text;whiteSpace=wrap;html=1;fontColor=#1A1A1A;" parent="1" vertex="1">
                    <mxGeometry x="-160.0018181818184" y="-4841.004545454545" width="408" height="134" as="geometry"/>
                </mxCell>
                <mxCell id="172" value="IServiço&lt;br&gt;(Interface)" style="rounded=1;whiteSpace=wrap;html=1;fillColor=#FFFFFF;strokeColor=#36393d;strokeWidth=2;fontColor=#050505;fontSize=24;" parent="1" vertex="1">
                    <mxGeometry x="-518.96" y="-5010" width="192" height="80" as="geometry"/>
                </mxCell>
                <mxCell id="174" value="IRepositorio&lt;br&gt;(Interface)" style="rounded=1;whiteSpace=wrap;html=1;fillColor=#FFFFFF;strokeColor=#36393d;strokeWidth=2;fontColor=#050505;fontSize=24;" parent="1" vertex="1">
                    <mxGeometry x="-525" y="-4774" width="192" height="80" as="geometry"/>
                </mxCell>
                <mxCell id="175" value="" style="shape=cylinder3;whiteSpace=wrap;html=1;boundedLbl=1;backgroundOutline=1;size=15;strokeColor=#4D4D4D;strokeWidth=4;fontSize=26;fontColor=#000000;fillColor=#FFFFFF;sketch=1;curveFitting=1;jiggle=2;" parent="1" vertex="1">
                    <mxGeometry x="987" y="-1379" width="127" height="144" as="geometry"/>
                </mxCell>
                <mxCell id="176" value="Banco de dados" style="text;strokeColor=none;fillColor=none;align=left;verticalAlign=top;spacingLeft=4;spacingRight=4;overflow=hidden;rotatable=0;points=[[0,0.5],[1,0.5]];portConstraint=eastwest;strokeWidth=4;fontSize=26;fontColor=#000000;fontFamily=Architects Daughter;fontSource=https%3A%2F%2Ffonts.googleapis.com%2Fcss%3Ffamily%3DArchitects%2BDaughter;" parent="1" vertex="1">
                    <mxGeometry x="957" y="-1463" width="205" height="38" as="geometry"/>
                </mxCell>
                <mxCell id="179" value="" style="edgeStyle=none;html=1;" parent="1" edge="1">
                    <mxGeometry relative="1" as="geometry">
                        <mxPoint x="-198.99411764705837" y="-1780" as="sourcePoint"/>
                        <mxPoint x="-199.6281733746123" y="-1748" as="targetPoint"/>
                    </mxGeometry>
                </mxCell>
                <mxCell id="186" value="" style="endArrow=classic;startArrow=classic;html=1;strokeColor=#333333;strokeWidth=5;fontFamily=Architects Daughter;fontSource=https%3A%2F%2Ffonts.googleapis.com%2Fcss%3Ffamily%3DArchitects%2BDaughter;fontColor=#1A1A1A;entryX=0;entryY=0.5;entryDx=0;entryDy=0;entryPerimeter=0;exitX=1;exitY=0.5;exitDx=0;exitDy=0;" parent="1" source="192" target="175" edge="1">
                    <mxGeometry width="50" height="50" relative="1" as="geometry">
                        <mxPoint x="-56" y="-1058" as="sourcePoint"/>
                        <mxPoint x="-6" y="-1108" as="targetPoint"/>
                    </mxGeometry>
                </mxCell>
                <mxCell id="192" value="" style="html=1;strokeColor=#4D4D4D;rotation=0;fillColor=#FFFFFF;fontColor=#000000;strokeWidth=4;fontSize=26;sketch=1;curveFitting=1;jiggle=2;" parent="1" vertex="1">
                    <mxGeometry x="-505.75" y="-1628" width="615" height="629" as="geometry"/>
                </mxCell>
                <mxCell id="193" value="Infraestrutura" style="html=1;strokeColor=#4D4D4D;rotation=0;fillColor=#FFFFFF;fontColor=#000000;strokeWidth=4;fontSize=26;sketch=1;curveFitting=1;jiggle=2;fontFamily=Architects Daughter;fontSource=https%3A%2F%2Ffonts.googleapis.com%2Fcss%3Ffamily%3DArchitects%2BDaughter;fontStyle=1" parent="1" vertex="1">
                    <mxGeometry x="-507.75" y="-1717" width="615" height="88" as="geometry"/>
                </mxCell>
                <mxCell id="194" value="Gerencia SQLite&lt;br&gt;(Database..ts)" style="html=1;strokeColor=#4D4D4D;rotation=0;fillColor=#FFFFFF;fontColor=#000000;strokeWidth=4;fontSize=26;sketch=1;curveFitting=1;jiggle=2;fontFamily=Architects Daughter;fontSource=https%3A%2F%2Ffonts.googleapis.com%2Fcss%3Ffamily%3DArchitects%2BDaughter;" parent="1" vertex="1">
                    <mxGeometry x="-413" y="-1238" width="441" height="148" as="geometry"/>
                </mxCell>
                <mxCell id="200" value="" style="endArrow=block;dashed=1;endFill=0;endSize=12;html=1;sketch=1;strokeColor=#4D4D4D;strokeWidth=4;fontFamily=Architects Daughter;fontSource=https%3A%2F%2Ffonts.googleapis.com%2Fcss%3Ffamily%3DArchitects%2BDaughter;fontSize=24;fontColor=#4D4D4D;exitX=0.5;exitY=0;exitDx=0;exitDy=0;" parent="1" source="201" target="140" edge="1">
                    <mxGeometry width="160" relative="1" as="geometry">
                        <mxPoint x="54" y="-1833" as="sourcePoint"/>
                        <mxPoint x="39.30280761757575" y="-1725.0024999999996" as="targetPoint"/>
                    </mxGeometry>
                </mxCell>
                <mxCell id="201" value="Lógica de negócio&lt;br&gt;(&lt;span style=&quot;color: rgb(77, 77, 77); font-size: 24px;&quot;&gt;ServiçoUImplPorta&lt;/span&gt;.ts)" style="html=1;strokeColor=#4D4D4D;rotation=0;fillColor=#FFFFFF;fontColor=#000000;strokeWidth=4;fontSize=26;sketch=1;curveFitting=1;jiggle=2;fontFamily=Architects Daughter;fontSource=https%3A%2F%2Ffonts.googleapis.com%2Fcss%3Ffamily%3DArchitects%2BDaughter;" parent="1" vertex="1">
                    <mxGeometry x="-428" y="-2339" width="441" height="148" as="geometry"/>
                </mxCell>
                <mxCell id="202" value="&lt;span style=&quot;background-color: rgb(255, 255, 255);&quot;&gt;IRepositorioUP&lt;/span&gt;&lt;br&gt;&lt;span style=&quot;background-color: rgb(255, 255, 255);&quot;&gt;(Adaptador)&lt;/span&gt;" style="html=1;strokeColor=#4D4D4D;rotation=0;fillColor=#FFFFFF;fontColor=#000000;strokeWidth=4;fontSize=26;sketch=1;curveFitting=1;jiggle=2;fontFamily=Architects Daughter;fontSource=https%3A%2F%2Ffonts.googleapis.com%2Fcss%3Ffamily%3DArchitects%2BDaughter;" parent="1" vertex="1">
                    <mxGeometry x="-425" y="-2079" width="441" height="148" as="geometry"/>
                </mxCell>
                <mxCell id="203" value="" style="endArrow=open;endSize=12;dashed=1;html=1;sketch=1;strokeColor=#4D4D4D;strokeWidth=4;fontFamily=Architects Daughter;fontSource=https%3A%2F%2Ffonts.googleapis.com%2Fcss%3Ffamily%3DArchitects%2BDaughter;fontSize=50;fontColor=#FFFFFF;exitX=0.5;exitY=1;exitDx=0;exitDy=0;" parent="1" source="201" target="202" edge="1">
                    <mxGeometry width="160" relative="1" as="geometry">
                        <mxPoint x="-195.77102803738308" y="-2841" as="sourcePoint"/>
                        <mxPoint x="-192.5" y="-2701" as="targetPoint"/>
                    </mxGeometry>
                </mxCell>
                <mxCell id="204" value="" style="endArrow=block;dashed=1;endFill=0;endSize=12;html=1;sketch=1;strokeColor=#4D4D4D;strokeWidth=4;fontFamily=Architects Daughter;fontSource=https%3A%2F%2Ffonts.googleapis.com%2Fcss%3Ffamily%3DArchitects%2BDaughter;fontSize=24;fontColor=#4D4D4D;entryX=0.5;entryY=1;entryDx=0;entryDy=0;" parent="1" source="205" target="202" edge="1">
                    <mxGeometry width="160" relative="1" as="geometry">
                        <mxPoint x="-197" y="-1738" as="sourcePoint"/>
                        <mxPoint x="-199.13803680981573" y="-2417.999999999999" as="targetPoint"/>
                    </mxGeometry>
                </mxCell>
                <mxCell id="205" value="&lt;span style=&quot;color: rgb(77, 77, 77); font-size: 24px;&quot;&gt;RepositorioImplPorta&lt;/span&gt;" style="html=1;strokeColor=#4D4D4D;rotation=0;fillColor=#FFFFFF;fontColor=#000000;strokeWidth=4;fontSize=26;sketch=1;curveFitting=1;jiggle=2;fontFamily=Architects Daughter;fontSource=https%3A%2F%2Ffonts.googleapis.com%2Fcss%3Ffamily%3DArchitects%2BDaughter;" parent="1" vertex="1">
                    <mxGeometry x="-416" y="-1545" width="441" height="148" as="geometry"/>
                </mxCell>
                <mxCell id="206" value="" style="endArrow=open;endSize=12;dashed=1;html=1;sketch=1;strokeColor=#4D4D4D;strokeWidth=4;fontFamily=Architects Daughter;fontSource=https%3A%2F%2Ffonts.googleapis.com%2Fcss%3Ffamily%3DArchitects%2BDaughter;fontSize=50;fontColor=#FFFFFF;exitX=0.5;exitY=1;exitDx=0;exitDy=0;entryX=0.5;entryY=0;entryDx=0;entryDy=0;" parent="1" source="205" target="194" edge="1">
                    <mxGeometry width="160" relative="1" as="geometry">
                        <mxPoint x="-197.5" y="-2181" as="sourcePoint"/>
                        <mxPoint x="-195.6935483870966" y="-2069" as="targetPoint"/>
                    </mxGeometry>
                </mxCell>
                <mxCell id="208" value="" style="shape=note;whiteSpace=wrap;html=1;backgroundOutline=1;darkOpacity=0.05;fillColor=#CDEB8B;strokeColor=#D5E8D4;size=0;fontSize=10;fontColor=#050505;" parent="1" vertex="1">
                    <mxGeometry x="2177" y="-5225" width="418" height="150" as="geometry"/>
                </mxCell>
                <mxCell id="209" value="Classe A" style="rounded=1;whiteSpace=wrap;html=1;fillColor=#FFFFFF;strokeColor=#36393d;strokeWidth=2;fontColor=#050505;fontSize=24;" parent="1" vertex="1">
                    <mxGeometry x="2274" y="-5197" width="212" height="86" as="geometry"/>
                </mxCell>
                <mxCell id="210" value="" style="endArrow=open;endSize=12;dashed=1;html=1;sketch=1;strokeColor=#4D4D4D;strokeWidth=4;fontFamily=Architects Daughter;fontSource=https%3A%2F%2Ffonts.googleapis.com%2Fcss%3Ffamily%3DArchitects%2BDaughter;fontSize=50;fontColor=#FFFFFF;exitX=0;exitY=0;exitDx=418;exitDy=75;exitPerimeter=0;startArrow=none;entryX=0;entryY=0.5;entryDx=0;entryDy=0;" parent="1" source="208" target="213" edge="1">
                    <mxGeometry width="160" relative="1" as="geometry">
                        <mxPoint x="2171.75" y="-3442" as="sourcePoint"/>
                        <mxPoint x="2810" y="-5150" as="targetPoint"/>
                    </mxGeometry>
                </mxCell>
                <mxCell id="213" value="Classe B" style="rounded=1;whiteSpace=wrap;html=1;fillColor=#FFFFFF;strokeColor=#36393d;strokeWidth=2;fontColor=#050505;fontSize=24;" parent="1" vertex="1">
                    <mxGeometry x="2850" y="-5193" width="212" height="86" as="geometry"/>
                </mxCell>
                <mxCell id="214" value="Usa" style="text;strokeColor=none;fillColor=none;align=left;verticalAlign=top;spacingLeft=4;spacingRight=4;overflow=hidden;rotatable=0;points=[[0,0.5],[1,0.5]];portConstraint=eastwest;strokeWidth=4;fontSize=26;fontColor=#000000;fontFamily=Architects Daughter;fontSource=https%3A%2F%2Ffonts.googleapis.com%2Fcss%3Ffamily%3DArchitects%2BDaughter;" parent="1" vertex="1">
                    <mxGeometry x="2641" y="-5216.75" width="61" height="38" as="geometry"/>
                </mxCell>
                <mxCell id="215" value="Depende" style="text;strokeColor=none;fillColor=none;align=left;verticalAlign=top;spacingLeft=4;spacingRight=4;overflow=hidden;rotatable=0;points=[[0,0.5],[1,0.5]];portConstraint=eastwest;strokeWidth=4;fontSize=26;fontColor=#000000;fontFamily=Architects Daughter;fontSource=https%3A%2F%2Ffonts.googleapis.com%2Fcss%3Ffamily%3DArchitects%2BDaughter;" parent="1" vertex="1">
                    <mxGeometry x="2610" y="-5277" width="129" height="38" as="geometry"/>
                </mxCell>
                <mxCell id="216" value="" style="shape=note;whiteSpace=wrap;html=1;backgroundOutline=1;darkOpacity=0.05;fillColor=#CDEB8B;strokeColor=#D5E8D4;size=0;fontSize=10;fontColor=#050505;" parent="1" vertex="1">
                    <mxGeometry x="2198" y="-4947.5" width="418" height="150" as="geometry"/>
                </mxCell>
                <mxCell id="217" value="Classe A" style="rounded=1;whiteSpace=wrap;html=1;fillColor=#FFFFFF;strokeColor=#36393d;strokeWidth=2;fontColor=#050505;fontSize=24;" parent="1" vertex="1">
                    <mxGeometry x="2295" y="-4919.5" width="212" height="86" as="geometry"/>
                </mxCell>
                <mxCell id="218" value="" style="endArrow=open;endSize=12;dashed=1;html=1;sketch=1;strokeColor=#4D4D4D;strokeWidth=4;fontFamily=Architects Daughter;fontSource=https%3A%2F%2Ffonts.googleapis.com%2Fcss%3Ffamily%3DArchitects%2BDaughter;fontSize=50;fontColor=#FFFFFF;exitX=0;exitY=0;exitDx=418;exitDy=75;exitPerimeter=0;startArrow=none;entryX=0;entryY=0.5;entryDx=0;entryDy=0;" parent="1" source="216" target="220" edge="1">
                    <mxGeometry width="160" relative="1" as="geometry">
                        <mxPoint x="2192.75" y="-3164.5" as="sourcePoint"/>
                        <mxPoint x="2831" y="-4872.5" as="targetPoint"/>
                    </mxGeometry>
                </mxCell>
                <mxCell id="220" value="&lt;br&gt;interface B" style="rounded=1;whiteSpace=wrap;html=1;fillColor=#FFFFFF;strokeColor=#36393d;strokeWidth=2;fontColor=#050505;fontSize=24;" parent="1" vertex="1">
                    <mxGeometry x="2871" y="-4915.5" width="212" height="86" as="geometry"/>
                </mxCell>
                <mxCell id="221" value="Usa" style="text;strokeColor=none;fillColor=none;align=left;verticalAlign=top;spacingLeft=4;spacingRight=4;overflow=hidden;rotatable=0;points=[[0,0.5],[1,0.5]];portConstraint=eastwest;strokeWidth=4;fontSize=26;fontColor=#000000;fontFamily=Architects Daughter;fontSource=https%3A%2F%2Ffonts.googleapis.com%2Fcss%3Ffamily%3DArchitects%2BDaughter;" parent="1" vertex="1">
                    <mxGeometry x="2662" y="-4939.25" width="61" height="38" as="geometry"/>
                </mxCell>
                <mxCell id="222" value="Depende" style="text;strokeColor=none;fillColor=none;align=left;verticalAlign=top;spacingLeft=4;spacingRight=4;overflow=hidden;rotatable=0;points=[[0,0.5],[1,0.5]];portConstraint=eastwest;strokeWidth=4;fontSize=26;fontColor=#000000;fontFamily=Architects Daughter;fontSource=https%3A%2F%2Ffonts.googleapis.com%2Fcss%3Ffamily%3DArchitects%2BDaughter;" parent="1" vertex="1">
                    <mxGeometry x="2631" y="-4999.5" width="129" height="38" as="geometry"/>
                </mxCell>
                <mxCell id="223" value="Classe B" style="rounded=1;whiteSpace=wrap;html=1;fillColor=#FFFFFF;strokeColor=#36393d;strokeWidth=2;fontColor=#050505;fontSize=24;" parent="1" vertex="1">
                    <mxGeometry x="2874" y="-4701" width="212" height="86" as="geometry"/>
                </mxCell>
                <mxCell id="224" value="" style="endArrow=block;dashed=1;endFill=0;endSize=12;html=1;sketch=1;strokeColor=#4D4D4D;strokeWidth=4;fontFamily=Architects Daughter;fontSource=https%3A%2F%2Ffonts.googleapis.com%2Fcss%3Ffamily%3DArchitects%2BDaughter;fontSize=24;fontColor=#4D4D4D;entryX=0.5;entryY=1;entryDx=0;entryDy=0;" parent="1" source="223" target="220" edge="1">
                    <mxGeometry width="160" relative="1" as="geometry">
                        <mxPoint x="3544.552173913043" y="-3841" as="sourcePoint"/>
                        <mxPoint x="3537" y="-4227" as="targetPoint"/>
                    </mxGeometry>
                </mxCell>
                <mxCell id="225" value="Implementa" style="text;strokeColor=none;fillColor=none;align=left;verticalAlign=top;spacingLeft=4;spacingRight=4;overflow=hidden;rotatable=0;points=[[0,0.5],[1,0.5]];portConstraint=eastwest;strokeWidth=4;fontSize=26;fontColor=#000000;fontFamily=Architects Daughter;fontSource=https%3A%2F%2Ffonts.googleapis.com%2Fcss%3Ffamily%3DArchitects%2BDaughter;" parent="1" vertex="1">
                    <mxGeometry x="3013" y="-4784" width="197" height="38" as="geometry"/>
                </mxCell>
                <mxCell id="229" value="Princípio da inversão de dependência" style="text;whiteSpace=wrap;html=1;fontFamily=Architects Daughter;fontSource=https%3A%2F%2Ffonts.googleapis.com%2Fcss%3Ffamily%3DArchitects%2BDaughter;fontSize=30;fontColor=#000000;" parent="1" vertex="1">
                    <mxGeometry x="850" y="-5382" width="622" height="36" as="geometry"/>
                </mxCell>
                <mxCell id="233" value="" style="shape=note;whiteSpace=wrap;html=1;backgroundOutline=1;darkOpacity=0.05;fillColor=#CDEB8B;strokeColor=#D5E8D4;size=0;fontSize=10;fontColor=#050505;" vertex="1" parent="1">
                    <mxGeometry x="483" y="-5175" width="418" height="150" as="geometry"/>
                </mxCell>
                <mxCell id="234" value="Ventilador" style="rounded=1;whiteSpace=wrap;html=1;fillColor=#FFFFFF;strokeColor=#36393d;strokeWidth=2;fontColor=#050505;fontSize=24;" vertex="1" parent="1">
                    <mxGeometry x="580" y="-5147" width="212" height="86" as="geometry"/>
                </mxCell>
                <mxCell id="235" value="PACOTE 1" style="shape=note;whiteSpace=wrap;html=1;backgroundOutline=1;darkOpacity=0.05;fillColor=#CDEB8B;strokeColor=#D5E8D4;size=0;fontSize=20;fontColor=#050505;" vertex="1" parent="1">
                    <mxGeometry x="481" y="-5255" width="418" height="68" as="geometry"/>
                </mxCell>
                <mxCell id="237" value="" style="shape=note;whiteSpace=wrap;html=1;backgroundOutline=1;darkOpacity=0.05;fillColor=#FF8000;strokeColor=#D5E8D4;size=0;fontSize=10;fontColor=#050505;" vertex="1" parent="1">
                    <mxGeometry x="488" y="-4891" width="418" height="150" as="geometry"/>
                </mxCell>
                <mxCell id="238" value="Computador" style="rounded=1;whiteSpace=wrap;html=1;fillColor=#FFFFFF;strokeColor=#36393d;strokeWidth=2;fontColor=#050505;fontSize=24;" vertex="1" parent="1">
                    <mxGeometry x="585" y="-4863" width="212" height="86" as="geometry"/>
                </mxCell>
                <mxCell id="239" value="PACOTE 2" style="shape=note;whiteSpace=wrap;html=1;backgroundOutline=1;darkOpacity=0.05;fillColor=#FF8000;strokeColor=#D5E8D4;size=0;fontSize=20;fontColor=#050505;" vertex="1" parent="1">
                    <mxGeometry x="486" y="-4971" width="418" height="68" as="geometry"/>
                </mxCell>
                <mxCell id="243" value="" style="shape=note;whiteSpace=wrap;html=1;backgroundOutline=1;darkOpacity=0.05;fillColor=#CCE5FF;strokeColor=#10739E;size=0;fontSize=10;" vertex="1" parent="1">
                    <mxGeometry x="1575" y="-5104.5" width="418" height="216" as="geometry"/>
                </mxCell>
                <mxCell id="244" value="Hidréletrica" style="rounded=1;whiteSpace=wrap;html=1;fillColor=#FFFFFF;strokeColor=#36393d;strokeWidth=2;fontColor=#050505;fontSize=24;" vertex="1" parent="1">
                    <mxGeometry x="1622" y="-5031" width="318" height="83" as="geometry"/>
                </mxCell>
                <mxCell id="245" value="" style="shape=note;whiteSpace=wrap;html=1;backgroundOutline=1;darkOpacity=0.05;fillColor=#000000;strokeColor=#10739E;size=0;fontSize=10;" vertex="1" parent="1">
                    <mxGeometry x="1032" y="-5075.5" width="342" height="158" as="geometry"/>
                </mxCell>
                <mxCell id="246" value="Tomada" style="rounded=1;whiteSpace=wrap;html=1;fillColor=#FFFFFF;strokeColor=#36393d;strokeWidth=2;fontColor=#050505;fontSize=24;" vertex="1" parent="1">
                    <mxGeometry x="1079" y="-5035" width="230" height="83" as="geometry"/>
                </mxCell>
                <mxCell id="248" value="PACOTE 4" style="shape=note;whiteSpace=wrap;html=1;backgroundOutline=1;darkOpacity=0.05;fillColor=#CCE5FF;strokeColor=#D5E8D4;size=0;fontSize=20;fontColor=#050505;" vertex="1" parent="1">
                    <mxGeometry x="1575" y="-5179" width="418" height="68" as="geometry"/>
                </mxCell>
                <mxCell id="249" value="PACOTE 3" style="shape=note;backgroundOutline=1;darkOpacity=0.05;fillColor=default;strokeColor=#10739E;size=0;fontSize=20;whiteSpace=wrap;" vertex="1" parent="1">
                    <mxGeometry x="1034" y="-5151.25" width="342" height="68" as="geometry"/>
                </mxCell>
                <mxCell id="250" value="" style="endArrow=open;endSize=12;dashed=1;html=1;sketch=1;strokeColor=#4D4D4D;strokeWidth=4;fontFamily=Architects Daughter;fontSource=https%3A%2F%2Ffonts.googleapis.com%2Fcss%3Ffamily%3DArchitects%2BDaughter;fontSize=50;fontColor=#FFFFFF;exitX=1;exitY=0.5;exitDx=0;exitDy=0;startArrow=none;entryX=0;entryY=0.5;entryDx=0;entryDy=0;" edge="1" parent="1" source="234" target="246">
                    <mxGeometry width="160" relative="1" as="geometry">
                        <mxPoint x="828" y="-5101.43" as="sourcePoint"/>
                        <mxPoint x="1083" y="-5101.43" as="targetPoint"/>
                    </mxGeometry>
                </mxCell>
                <mxCell id="253" value="" style="endArrow=open;endSize=12;dashed=1;html=1;sketch=1;strokeColor=#4D4D4D;strokeWidth=4;fontFamily=Architects Daughter;fontSource=https%3A%2F%2Ffonts.googleapis.com%2Fcss%3Ffamily%3DArchitects%2BDaughter;fontSize=50;fontColor=#FFFFFF;startArrow=none;exitX=1;exitY=0.5;exitDx=0;exitDy=0;" edge="1" parent="1" source="238">
                    <mxGeometry width="160" relative="1" as="geometry">
                        <mxPoint x="872.5223880597014" y="-4891" as="sourcePoint"/>
                        <mxPoint x="1078" y="-4983" as="targetPoint"/>
                    </mxGeometry>
                </mxCell>
                <mxCell id="254" value="" style="endArrow=block;dashed=1;endFill=0;endSize=12;html=1;sketch=1;strokeColor=#4D4D4D;strokeWidth=4;fontFamily=Architects Daughter;fontSource=https%3A%2F%2Ffonts.googleapis.com%2Fcss%3Ffamily%3DArchitects%2BDaughter;fontSize=24;fontColor=#4D4D4D;exitX=0;exitY=0.5;exitDx=0;exitDy=0;" edge="1" parent="1" source="244" target="246">
                    <mxGeometry width="160" relative="1" as="geometry">
                        <mxPoint x="2989.247813411079" y="-4691" as="sourcePoint"/>
                        <mxPoint x="1514" y="-4967" as="targetPoint"/>
                    </mxGeometry>
                </mxCell>
                <mxCell id="255" value="" style="endArrow=open;endSize=12;dashed=1;html=1;sketch=1;strokeColor=#4D4D4D;strokeWidth=4;fontFamily=Architects Daughter;fontSource=https%3A%2F%2Ffonts.googleapis.com%2Fcss%3Ffamily%3DArchitects%2BDaughter;fontSize=50;fontColor=#FFFFFF;entryX=0.5;entryY=0;entryDx=0;entryDy=0;" edge="1" parent="1">
                    <mxGeometry width="160" relative="1" as="geometry">
                        <mxPoint x="93.65472779369611" y="-2851" as="sourcePoint"/>
                        <mxPoint x="-210.5" y="-2576" as="targetPoint"/>
                    </mxGeometry>
                </mxCell>
            </root>
        </mxGraphModel>
    </diagram>
</mxfile>